<?xml version="1.0" encoding="iso-8859-1"?>
<!-- Uploaded to: SVG Repo, www.svgrepo.com, Generator: SVG Repo Mixer Tools -->
<svg version="1.1" id="Layer_1" xmlns="http://www.w3.org/2000/svg" xmlns:xlink="http://www.w3.org/1999/xlink" 
	 viewBox="0 0 512 512" xml:space="preserve">
<circle style="fill:#FC6F58;" cx="256" cy="256" r="256"/>
<path style="fill:#F1543F;" d="M502.991,323.489L349.953,170.451l-52.003-31.497l-135.902,31.497l60.668,60.668l-89.112,182.188
	l97.483,97.483c8.199,0.791,16.506,1.21,24.914,1.21C374.024,512,473.374,432.125,502.991,323.489z"/>
<rect x="199.111" y="151.911" style="fill:#FFFFFF;" width="56.889" height="85.333"/>
<rect x="256" y="151.911" style="fill:#CFDBE6;" width="56.889" height="85.333"/>
<rect x="156.444" y="208.799" style="fill:#31BAFD;" width="199.111" height="85.333"/>
<rect x="256" y="208.799" style="fill:#2B9ED8;" width="99.556" height="85.333"/>
<path style="fill:#FFD15D;" d="M133.603,260.31v152.997h30.599c0-50.698,41.1-91.798,91.798-91.798s91.798,41.1,91.798,91.798
	h30.599V260.31H133.603z"/>
<path style="fill:#F9B54C;" d="M256,260.31v61.199c50.698,0,91.798,41.1,91.798,91.798h30.599V260.31H256z"/>
<polygon style="fill:#90DFAA;" points="162.047,170.451 256,76.498 349.953,170.451 "/>
<polygon style="fill:#84CE99;" points="256,76.498 256,170.451 349.953,170.451 "/>
</svg>